<svg xmlns="http://www.w3.org/2000/svg" viewBox="0 0 96 96" role="img" aria-label="Blossomflowers logo">
  <rect width="96" height="96" rx="20" fill="#d9f2dc"/>
  <circle cx="48" cy="38" r="11" fill="#79c267"/>
  <g fill="#0f4727">
    <ellipse cx="48" cy="19" rx="10" ry="19"/>
    <ellipse cx="66" cy="31" rx="10" ry="19" transform="rotate(55 66 31)"/>
    <ellipse cx="59" cy="53" rx="10" ry="19" transform="rotate(145 59 53)"/>
    <ellipse cx="37" cy="53" rx="10" ry="19" transform="rotate(215 37 53)"/>
    <ellipse cx="30" cy="31" rx="10" ry="19" transform="rotate(305 30 31)"/>
  </g>
  <path d="M48 54c0 12 0 20-7 28" fill="none" stroke="#14612e" stroke-width="6" stroke-linecap="round"/>
  <path d="M48 68c8-8 18-10 28-6-7 10-18 15-28 12z" fill="#4fba6f"/>
  <path d="M44 72c-9-8-19-10-29-5 8 10 19 14 29 11z" fill="#4fba6f"/>
</svg>
