<svg xmlns="http://www.w3.org/2000/svg" viewBox="0 0 900 650" role="img" aria-label="Peace lily plant with white flowers">
  <rect width="900" height="650" fill="#0f4727"/>
  <circle cx="705" cy="110" r="210" fill="#1d6b38"/>
  <path d="M300 610h300l-36-184H336z" fill="#7c5f35"/>
  <path d="M330 426h240c0 42-54 76-120 76s-120-34-120-76z" fill="#9f7a3f"/>
  <g fill="#58a85f">
    <ellipse cx="318" cy="382" rx="68" ry="174" transform="rotate(-35 318 382)"/>
    <ellipse cx="438" cy="360" rx="76" ry="210" transform="rotate(-8 438 360)"/>
    <ellipse cx="557" cy="380" rx="72" ry="180" transform="rotate(32 557 380)"/>
    <ellipse cx="395" cy="455" rx="58" ry="150" transform="rotate(-58 395 455)"/>
    <ellipse cx="515" cy="462" rx="58" ry="150" transform="rotate(58 515 462)"/>
  </g>
  <g fill="none" stroke="#d9f2dc" stroke-width="5" opacity=".45">
    <path d="M318 382c10 43 7 96-8 150"/>
    <path d="M438 360c4 72 2 126-6 180"/>
    <path d="M557 380c-12 52-12 101 0 146"/>
  </g>
  <g>
    <path d="M457 258c78-72 154-67 171 0-34 64-113 80-171 0z" fill="#f4ffd5"/>
    <path d="M455 259c27 24 74 33 125 12" fill="none" stroke="#d0dfba" stroke-width="5"/>
    <line x1="454" y1="430" x2="498" y2="279" stroke="#9bd16c" stroke-width="11" stroke-linecap="round"/>
    <ellipse cx="506" cy="252" rx="12" ry="45" fill="#d4c84d"/>
  </g>
</svg>
